<?xml version="1.0" standalone="no"?>
<!DOCTYPE svg PUBLIC "-//W3C//DTD SVG 20010904//EN"
 "http://www.w3.org/TR/2001/REC-SVG-20010904/DTD/svg10.dtd">
<svg version="1.0" xmlns="http://www.w3.org/2000/svg"
 width="904.000000pt" height="390.000000pt" viewBox="0 0 904.000000 390.000000"
 preserveAspectRatio="xMidYMid meet">

<g transform="translate(0.000000,390.000000) scale(0.100000,-0.100000)"
fill="#000000" stroke="none">
<path d="M5455 3609 c-343 -43 -646 -255 -795 -557 -74 -151 -109 -293 -117
-472 -21 -499 276 -926 745 -1074 230 -72 497 -74 740 -6 134 38 327 143 337
185 8 32 55 332 55 350 0 40 -34 4 -61 -65 -127 -317 -404 -487 -757 -467
-135 8 -201 26 -327 87 -317 154 -503 470 -522 886 -16 343 88 651 290 856 70
71 127 110 230 158 111 51 208 72 342 72 336 0 586 -170 691 -472 13 -37 30
-66 39 -68 13 -3 15 20 15 186 l0 190 -48 31 c-224 143 -568 216 -857 180z"/>
<path d="M400 3571 c0 -15 6 -21 24 -21 36 0 90 -42 103 -80 18 -54 18 -1829
0 -1873 -17 -39 -36 -55 -84 -72 -21 -7 -39 -20 -41 -29 -3 -14 22 -16 237
-16 234 0 241 1 241 20 0 15 -7 20 -25 20 -41 0 -92 54 -104 111 -7 30 -11
189 -11 404 l0 355 208 0 207 0 315 -455 315 -454 158 -1 c129 0 157 3 157 14
0 8 -25 26 -55 40 -30 14 -80 50 -113 83 -50 49 -589 791 -580 798 2 1 42 15
90 30 114 36 197 86 269 163 96 102 133 194 145 352 22 303 -162 524 -505 607
-53 13 -151 16 -508 20 l-443 5 0 -21z m871 -56 c256 -69 380 -239 380 -520 0
-278 -120 -449 -366 -523 -36 -10 -118 -16 -297 -19 l-248 -5 0 539 c0 297 3
543 8 548 13 14 461 -3 523 -20z"/>
<path d="M3090 3572 c0 -11 13 -24 32 -33 17 -8 41 -26 52 -41 42 -58 40 -67
-289 -928 -169 -443 -320 -837 -337 -877 -37 -91 -90 -147 -155 -166 -29 -9
-49 -21 -51 -31 -3 -14 16 -16 193 -16 180 0 196 1 193 17 -2 11 -18 21 -41
26 -22 5 -48 22 -63 40 -22 26 -25 38 -22 77 4 38 166 481 199 541 9 18 28 19
464 19 l454 0 15 -27 c43 -86 216 -515 216 -537 0 -59 -39 -102 -105 -116 -17
-3 -31 -13 -33 -23 -3 -16 18 -17 273 -17 255 0 276 1 273 17 -2 10 -16 20
-33 23 -67 14 -124 60 -162 134 -9 17 -196 459 -414 981 l-397 950 -131 3
c-122 2 -131 1 -131 -16z m385 -777 c120 -286 220 -526 222 -532 4 -10 -86
-13 -431 -13 -240 0 -436 4 -436 8 0 6 257 685 402 1062 8 20 11 22 18 10 4
-8 106 -249 225 -535z"/>
<path d="M6830 3573 c0 -13 15 -23 47 -33 28 -9 55 -26 67 -43 21 -28 21 -35
24 -950 2 -652 -1 -930 -9 -949 -15 -38 -53 -69 -91 -77 -19 -4 -34 -14 -36
-24 -3 -16 16 -17 243 -17 227 0 246 1 243 17 -2 10 -17 20 -36 24 -18 4 -42
15 -53 25 -49 44 -49 44 -49 524 l0 450 625 0 625 0 0 -445 c0 -470 -2 -487
-46 -527 -11 -9 -35 -20 -54 -25 -20 -5 -36 -16 -38 -26 -3 -16 17 -17 237
-17 210 0 241 2 241 15 0 9 -8 18 -17 21 -53 16 -84 37 -100 66 -17 31 -18 88
-21 903 -2 479 0 893 3 922 8 69 40 114 93 133 28 10 42 20 42 32 0 17 -17 18
-240 18 -233 0 -240 -1 -240 -20 0 -12 7 -20 16 -20 38 0 87 -34 105 -74 17
-38 19 -74 19 -468 l0 -428 -625 0 -626 0 3 444 c3 432 4 445 24 473 12 17 39
34 67 43 32 10 47 20 47 33 0 16 -18 17 -245 17 -227 0 -245 -1 -245 -17z"/>
<path d="M5385 761 c-85 -40 -124 -106 -125 -212 0 -37 6 -82 14 -101 45 -106
178 -154 300 -108 53 20 60 21 68 6 25 -44 34 -5 22 88 -8 54 -19 59 -28 12
-10 -53 -54 -93 -109 -101 -58 -9 -87 -2 -125 30 -45 38 -65 89 -66 170 -2
167 96 261 217 207 47 -21 71 -48 82 -94 12 -46 23 -32 30 38 5 45 4 69 -4 77
-9 9 -13 6 -17 -11 -8 -27 -6 -27 -54 -2 -51 26 -150 27 -205 1z"/>
<path d="M5905 761 c-85 -40 -124 -106 -125 -212 0 -78 17 -123 61 -167 41
-40 88 -56 165 -56 146 1 230 95 222 248 -3 63 -8 81 -33 117 -43 61 -102 89
-184 89 -43 0 -80 -7 -106 -19z m170 -20 c70 -41 102 -189 62 -293 -73 -188
-280 -113 -281 101 -2 170 101 260 219 192z"/>
<path d="M6330 769 c0 -4 9 -9 20 -12 32 -8 40 -49 40 -202 0 -153 -8 -194
-40 -202 -43 -11 -17 -23 50 -23 40 0 70 4 70 10 0 6 -8 10 -19 10 -37 0 -42
21 -39 196 l3 167 142 -191 c78 -106 147 -192 153 -192 6 0 10 67 10 193 0
201 2 213 45 235 15 8 4 11 -53 14 -77 3 -91 -3 -42 -21 l30 -10 0 -147 0
-148 -122 164 -123 163 -63 1 c-34 1 -62 -2 -62 -5z"/>
<path d="M7005 761 c-85 -40 -124 -106 -125 -212 0 -37 6 -82 14 -101 45 -106
178 -154 300 -108 53 20 60 21 68 6 25 -44 34 -5 22 88 -8 54 -19 59 -28 12
-10 -53 -54 -93 -109 -101 -58 -9 -87 -2 -125 30 -45 38 -65 89 -66 170 -2
167 96 261 217 207 47 -21 71 -48 82 -94 12 -46 23 -32 30 38 5 45 4 69 -4 77
-9 9 -13 6 -17 -11 -8 -27 -6 -27 -54 -2 -51 26 -150 27 -205 1z"/>
<path d="M7390 769 c0 -4 9 -9 20 -12 32 -8 40 -49 40 -207 0 -161 -8 -200
-40 -200 -11 0 -20 -4 -20 -10 0 -6 68 -10 185 -10 l185 0 0 65 c0 36 -4 65
-9 65 -5 0 -15 -19 -23 -42 -16 -52 -43 -68 -120 -68 -89 0 -88 -2 -88 107 l0
95 38 -7 c47 -9 58 -18 66 -56 11 -56 24 -20 23 66 -1 63 -4 85 -14 85 -7 0
-13 -9 -13 -20 0 -29 -36 -60 -70 -60 l-30 0 0 90 c0 108 8 116 104 107 66 -6
96 -29 96 -73 0 -13 6 -24 13 -24 8 0 12 18 12 55 l0 55 -178 3 c-97 1 -177
-1 -177 -4z"/>
<path d="M7870 769 c0 -4 9 -9 20 -12 32 -8 40 -49 40 -207 0 -161 -8 -200
-40 -200 -11 0 -20 -4 -20 -10 0 -6 40 -10 100 -10 60 0 100 4 100 10 0 6 -10
10 -23 10 -37 0 -47 19 -47 92 l0 68 58 0 c114 1 188 61 179 148 -6 52 -36 88
-86 102 -41 11 -281 18 -281 9z m229 -20 c40 -14 61 -54 61 -114 0 -38 -5 -52
-29 -76 -25 -24 -37 -29 -80 -29 l-51 0 0 103 c0 130 13 146 99 116z"/>
<path d="M8314 771 c-9 -9 -4 -131 6 -131 5 0 14 18 20 40 6 21 17 46 25 54
19 18 94 31 107 18 5 -5 8 -85 6 -196 -3 -200 -5 -206 -55 -206 -13 0 -23 -4
-23 -10 0 -6 43 -10 110 -10 67 0 110 4 110 10 0 6 -10 10 -23 10 -44 0 -47
13 -47 218 l0 194 48 -6 c54 -8 78 -31 88 -82 10 -57 24 -38 24 34 l0 67 -196
0 c-108 0 -198 -2 -200 -4z"/>
</g>
</svg>
